<svg id="Layer_1" data-name="Layer 1" xmlns="http://www.w3.org/2000/svg" viewBox="0 0 20 20"><defs><style>.cls-1{fill:#8baed1;}.cls-2{fill:#4c82b8;}.cls-3{fill:#717171;}</style></defs><title>Artboard 2 copy</title><path class="cls-1" d="M1.3,19A.48.48,0,0,1,1,18.89a.52.52,0,0,1-.11-.74l3.76-4.82A.54.54,0,0,1,5,13.12a.52.52,0,0,1,.4.11l1.44,1.11L11.2,8.51a.54.54,0,0,1,.37-.21.55.55,0,0,1,.41.11l1.44,1.1,4.36-5.83a.56.56,0,0,1,.76-.11.52.52,0,0,1,.12.74L14,10.58a.55.55,0,0,1-.77.1l-1.44-1.1L7.38,15.41a.58.58,0,0,1-.36.21.54.54,0,0,1-.41-.11L5.16,14.4,1.74,18.79A.55.55,0,0,1,1.3,19Z"/><path class="cls-2" d="M10.45,10.94a.55.55,0,0,1-.32-.1A.53.53,0,0,1,10,10.1L11.2,8.51a.54.54,0,0,1,.37-.21.55.55,0,0,1,.41.11l1.44,1.1,4.36-5.83a.56.56,0,0,1,.76-.11.52.52,0,0,1,.12.74L14,10.58a.55.55,0,0,1-.77.1l-1.44-1.1-.86,1.14A.56.56,0,0,1,10.45,10.94Z"/><ellipse class="cls-2" cx="10.08" cy="10.87" rx="1.03" ry="1"/><polygon class="cls-3" points="19.74 19.5 0.26 19.5 0.26 0.5 1.32 0.5 1.32 18.44 19.74 18.44 19.74 19.5"/></svg>